<svg xmlns="http://www.w3.org/2000/svg" width="340" height="200" viewBox="0 0 340 200" font-family="'Segoe UI', Ubuntu, Sans-Serif">
  <rect x="0.5" y="0.5" width="339" height="199" rx="6" fill="#141321" stroke="#141321" stroke-opacity="1.00"/>
  <text x="20" y="30" font-size="15" font-weight="600" fill="#fe428e">Most Commit Language (last year)</text>
  <rect x="20" y="47" width="10" height="10" fill="#dea584" stroke="#141321" stroke-width="1"/>
  <text x="36" y="55" font-size="11" fill="#a9fef7">Rust 88.75%</text>
  <rect x="20" y="67" width="10" height="10" fill="#4F5D95" stroke="#141321" stroke-width="1"/>
  <text x="36" y="75" font-size="11" fill="#a9fef7">PHP 4.57%</text>
  <rect x="20" y="87" width="10" height="10" fill="#f1e05a" stroke="#141321" stroke-width="1"/>
  <text x="36" y="95" font-size="11" fill="#a9fef7">JavaScript 2.48%</text>
  <rect x="20" y="107" width="10" height="10" fill="#1a5e9a" stroke="#141321" stroke-width="1"/>
  <text x="36" y="115" font-size="11" fill="#a9fef7">WGSL 1.73%</text>
  <rect x="20" y="127" width="10" height="10" fill="#663399" stroke="#141321" stroke-width="1"/>
  <text x="36" y="135" font-size="11" fill="#a9fef7">CSS 0.66%</text>
  <rect x="20" y="147" width="10" height="10" fill="#5686a5" stroke="#141321" stroke-width="1"/>
  <text x="36" y="155" font-size="11" fill="#a9fef7">GLSL 0.41%</text>
  <rect x="20" y="167" width="10" height="10" fill="#ae81ff" stroke="#141321" stroke-width="1"/>
  <text x="36" y="175" font-size="11" fill="#a9fef7">Other 1.40%</text>
  <path d="M250.00,55.00 A55.00,55.00 0 1 1 214.27,68.18 L230.51,87.19 A30.00,30.00 0 1 0 250.00,80.00 Z" fill="#dea584" stroke="#141321" stroke-width="1.5"/>
  <path d="M214.27,68.18 A55.00,55.00 0 0 1 227.58,59.78 L237.77,82.60 A30.00,30.00 0 0 0 230.51,87.19 Z" fill="#4F5D95" stroke="#141321" stroke-width="1.5"/>
  <path d="M227.58,59.78 A55.00,55.00 0 0 1 235.64,56.91 L242.17,81.04 A30.00,30.00 0 0 0 237.77,82.60 Z" fill="#f1e05a" stroke="#141321" stroke-width="1.5"/>
  <path d="M235.64,56.91 A55.00,55.00 0 0 1 241.50,55.66 L245.36,80.36 A30.00,30.00 0 0 0 242.17,81.04 Z" fill="#1a5e9a" stroke="#141321" stroke-width="1.5"/>
  <path d="M241.50,55.66 A55.00,55.00 0 0 1 243.74,55.36 L246.59,80.19 A30.00,30.00 0 0 0 245.36,80.36 Z" fill="#663399" stroke="#141321" stroke-width="1.5"/>
  <path d="M243.74,55.36 A55.00,55.00 0 0 1 245.16,55.21 L247.36,80.12 A30.00,30.00 0 0 0 246.59,80.19 Z" fill="#5686a5" stroke="#141321" stroke-width="1.5"/>
  <path d="M245.16,55.21 A55.00,55.00 0 0 1 250.00,55.00 L250.00,80.00 A30.00,30.00 0 0 0 247.36,80.12 Z" fill="#ae81ff" stroke="#141321" stroke-width="1.5"/>
</svg>