<svg xmlns="http://www.w3.org/2000/svg" width="340" height="200" viewBox="0 0 340 200" font-family="'Segoe UI', Ubuntu, Sans-Serif">
  <rect x="0.5" y="0.5" width="339" height="199" rx="6" fill="#141321" stroke="#141321" stroke-opacity="1.00"/>
  <text x="20" y="30" font-size="15" font-weight="600" fill="#fe428e">Most Commit Language (last year)</text>
  <rect x="20" y="47" width="10" height="10" fill="#dea584" stroke="#141321" stroke-width="1"/>
  <text x="36" y="55" font-size="11" fill="#a9fef7">Rust 87.34%</text>
  <rect x="20" y="67" width="10" height="10" fill="#4F5D95" stroke="#141321" stroke-width="1"/>
  <text x="36" y="75" font-size="11" fill="#a9fef7">PHP 5.22%</text>
  <rect x="20" y="87" width="10" height="10" fill="#f1e05a" stroke="#141321" stroke-width="1"/>
  <text x="36" y="95" font-size="11" fill="#a9fef7">JavaScript 2.83%</text>
  <rect x="20" y="107" width="10" height="10" fill="#1a5e9a" stroke="#141321" stroke-width="1"/>
  <text x="36" y="115" font-size="11" fill="#a9fef7">WGSL 1.97%</text>
  <rect x="20" y="127" width="10" height="10" fill="#663399" stroke="#141321" stroke-width="1"/>
  <text x="36" y="135" font-size="11" fill="#a9fef7">CSS 0.75%</text>
  <rect x="20" y="147" width="10" height="10" fill="#5686a5" stroke="#141321" stroke-width="1"/>
  <text x="36" y="155" font-size="11" fill="#a9fef7">GLSL 0.47%</text>
  <rect x="20" y="167" width="10" height="10" fill="#ae81ff" stroke="#141321" stroke-width="1"/>
  <text x="36" y="175" font-size="11" fill="#a9fef7">Other 1.41%</text>
  <path d="M250.00,55.00 A55.00,55.00 0 1 1 210.72,71.51 L228.57,89.00 A30.00,30.00 0 1 0 250.00,80.00 Z" fill="#dea584" stroke="#141321" stroke-width="1.5"/>
  <path d="M210.72,71.51 A55.00,55.00 0 0 1 225.22,60.90 L236.49,83.22 A30.00,30.00 0 0 0 228.57,89.00 Z" fill="#4F5D95" stroke="#141321" stroke-width="1.5"/>
  <path d="M225.22,60.90 A55.00,55.00 0 0 1 234.31,57.29 L241.44,81.25 A30.00,30.00 0 0 0 236.49,83.22 Z" fill="#f1e05a" stroke="#141321" stroke-width="1.5"/>
  <path d="M234.31,57.29 A55.00,55.00 0 0 1 240.95,55.75 L245.06,80.41 A30.00,30.00 0 0 0 241.44,81.25 Z" fill="#1a5e9a" stroke="#141321" stroke-width="1.5"/>
  <path d="M240.95,55.75 A55.00,55.00 0 0 1 243.51,55.38 L246.46,80.21 A30.00,30.00 0 0 0 245.06,80.41 Z" fill="#663399" stroke="#141321" stroke-width="1.5"/>
  <path d="M243.51,55.38 A55.00,55.00 0 0 1 245.12,55.22 L247.34,80.12 A30.00,30.00 0 0 0 246.46,80.21 Z" fill="#5686a5" stroke="#141321" stroke-width="1.5"/>
  <path d="M245.12,55.22 A55.00,55.00 0 0 1 250.00,55.00 L250.00,80.00 A30.00,30.00 0 0 0 247.34,80.12 Z" fill="#ae81ff" stroke="#141321" stroke-width="1.5"/>
</svg>