<svg xmlns="http://www.w3.org/2000/svg" width="340" height="200" viewBox="0 0 340 200" font-family="'Segoe UI', Ubuntu, Sans-Serif">
  <rect x="0.5" y="0.5" width="339" height="199" rx="6" fill="#141321" stroke="#141321" stroke-opacity="1.00"/>
  <text x="20" y="30" font-size="15" font-weight="600" fill="#fe428e">Most Commit Language (last year)</text>
  <rect x="20" y="47" width="10" height="10" fill="#dea584" stroke="#141321" stroke-width="1"/>
  <text x="36" y="55" font-size="11" fill="#a9fef7">Rust 89.64%</text>
  <rect x="20" y="67" width="10" height="10" fill="#4F5D95" stroke="#141321" stroke-width="1"/>
  <text x="36" y="75" font-size="11" fill="#a9fef7">PHP 5.63%</text>
  <rect x="20" y="87" width="10" height="10" fill="#f1e05a" stroke="#141321" stroke-width="1"/>
  <text x="36" y="95" font-size="11" fill="#a9fef7">JavaScript 3.02%</text>
  <rect x="20" y="107" width="10" height="10" fill="#663399" stroke="#141321" stroke-width="1"/>
  <text x="36" y="115" font-size="11" fill="#a9fef7">CSS 0.81%</text>
  <rect x="20" y="127" width="10" height="10" fill="#AA6746" stroke="#141321" stroke-width="1"/>
  <text x="36" y="135" font-size="11" fill="#a9fef7">Solidity 0.46%</text>
  <rect x="20" y="147" width="10" height="10" fill="#384d54" stroke="#141321" stroke-width="1"/>
  <text x="36" y="155" font-size="11" fill="#a9fef7">Dockerfile 0.32%</text>
  <rect x="20" y="167" width="10" height="10" fill="#ae81ff" stroke="#141321" stroke-width="1"/>
  <text x="36" y="175" font-size="11" fill="#a9fef7">Other 0.13%</text>
  <path d="M250.00,55.00 A55.00,55.00 0 1 1 216.66,66.26 L231.82,86.14 A30.00,30.00 0 1 0 250.00,80.00 Z" fill="#dea584" stroke="#141321" stroke-width="1.5"/>
  <path d="M216.66,66.26 A55.00,55.00 0 0 1 233.87,57.42 L241.20,81.32 A30.00,30.00 0 0 0 231.82,86.14 Z" fill="#4F5D95" stroke="#141321" stroke-width="1.5"/>
  <path d="M233.87,57.42 A55.00,55.00 0 0 1 244.07,55.32 L246.77,80.17 A30.00,30.00 0 0 0 241.20,81.32 Z" fill="#f1e05a" stroke="#141321" stroke-width="1.5"/>
  <path d="M244.07,55.32 A55.00,55.00 0 0 1 246.85,55.09 L248.28,80.05 A30.00,30.00 0 0 0 246.77,80.17 Z" fill="#663399" stroke="#141321" stroke-width="1.5"/>
  <path d="M246.85,55.09 A55.00,55.00 0 0 1 248.46,55.02 L249.16,80.01 A30.00,30.00 0 0 0 248.28,80.05 Z" fill="#AA6746" stroke="#141321" stroke-width="1.5"/>
  <path d="M248.46,55.02 A55.00,55.00 0 0 1 249.55,55.00 L249.75,80.00 A30.00,30.00 0 0 0 249.16,80.01 Z" fill="#384d54" stroke="#141321" stroke-width="1.5"/>
  <path d="M249.55,55.00 A55.00,55.00 0 0 1 250.00,55.00 L250.00,80.00 A30.00,30.00 0 0 0 249.75,80.00 Z" fill="#ae81ff" stroke="#141321" stroke-width="1.5"/>
</svg>