<svg xmlns="http://www.w3.org/2000/svg" width="340" height="200" viewBox="0 0 340 200" font-family="'Segoe UI', Ubuntu, Sans-Serif">
  <rect x="0.5" y="0.5" width="339" height="199" rx="6" fill="#141321" stroke="#141321" stroke-opacity="1.00"/>
  <text x="20" y="30" font-size="15" font-weight="600" fill="#fe428e">Most Commit Language (last year)</text>
  <rect x="20" y="47" width="10" height="10" fill="#dea584" stroke="#141321" stroke-width="1"/>
  <text x="36" y="55" font-size="11" fill="#a9fef7">Rust 92.11%</text>
  <rect x="20" y="67" width="10" height="10" fill="#3178c6" stroke="#141321" stroke-width="1"/>
  <text x="36" y="75" font-size="11" fill="#a9fef7">TypeScript 4.46%</text>
  <rect x="20" y="87" width="10" height="10" fill="#f1e05a" stroke="#141321" stroke-width="1"/>
  <text x="36" y="95" font-size="11" fill="#a9fef7">JavaScript 1.27%</text>
  <rect x="20" y="107" width="10" height="10" fill="#89e051" stroke="#141321" stroke-width="1"/>
  <text x="36" y="115" font-size="11" fill="#a9fef7">Shell 0.72%</text>
  <rect x="20" y="127" width="10" height="10" fill="#4F5D95" stroke="#141321" stroke-width="1"/>
  <text x="36" y="135" font-size="11" fill="#a9fef7">PHP 0.67%</text>
  <rect x="20" y="147" width="10" height="10" fill="#1a5e9a" stroke="#141321" stroke-width="1"/>
  <text x="36" y="155" font-size="11" fill="#a9fef7">WGSL 0.25%</text>
  <rect x="20" y="167" width="10" height="10" fill="#ae81ff" stroke="#141321" stroke-width="1"/>
  <text x="36" y="175" font-size="11" fill="#a9fef7">Other 0.53%</text>
  <path d="M250.00,55.00 A55.00,55.00 0 1 1 223.84,61.62 L235.73,83.61 A30.00,30.00 0 1 0 250.00,80.00 Z" fill="#dea584" stroke="#141321" stroke-width="1.5"/>
  <path d="M223.84,61.62 A55.00,55.00 0 0 1 238.23,56.27 L243.58,80.69 A30.00,30.00 0 0 0 235.73,83.61 Z" fill="#3178c6" stroke="#141321" stroke-width="1.5"/>
  <path d="M238.23,56.27 A55.00,55.00 0 0 1 242.56,55.51 L245.94,80.28 A30.00,30.00 0 0 0 243.58,80.69 Z" fill="#f1e05a" stroke="#141321" stroke-width="1.5"/>
  <path d="M242.56,55.51 A55.00,55.00 0 0 1 245.02,55.23 L247.28,80.12 A30.00,30.00 0 0 0 245.94,80.28 Z" fill="#89e051" stroke="#141321" stroke-width="1.5"/>
  <path d="M245.02,55.23 A55.00,55.00 0 0 1 247.32,55.07 L248.54,80.04 A30.00,30.00 0 0 0 247.28,80.12 Z" fill="#4F5D95" stroke="#141321" stroke-width="1.5"/>
  <path d="M247.32,55.07 A55.00,55.00 0 0 1 248.18,55.03 L249.01,80.02 A30.00,30.00 0 0 0 248.54,80.04 Z" fill="#1a5e9a" stroke="#141321" stroke-width="1.5"/>
  <path d="M248.18,55.03 A55.00,55.00 0 0 1 250.00,55.00 L250.00,80.00 A30.00,30.00 0 0 0 249.01,80.02 Z" fill="#ae81ff" stroke="#141321" stroke-width="1.5"/>
</svg>