<svg xmlns="http://www.w3.org/2000/svg" width="340" height="200" viewBox="0 0 340 200" font-family="'Segoe UI', Ubuntu, Sans-Serif">
  <rect x="0.5" y="0.5" width="339" height="199" rx="6" fill="#141321" stroke="#141321" stroke-opacity="1.00"/>
  <text x="20" y="30" font-size="15" font-weight="600" fill="#fe428e">Most Commit Language (all time)</text>
  <rect x="20" y="47" width="10" height="10" fill="#dea584" stroke="#141321" stroke-width="1"/>
  <text x="36" y="55" font-size="11" fill="#a9fef7">Rust 95.97%</text>
  <rect x="20" y="67" width="10" height="10" fill="#f1e05a" stroke="#141321" stroke-width="1"/>
  <text x="36" y="75" font-size="11" fill="#a9fef7">JavaScript 1.77%</text>
  <rect x="20" y="87" width="10" height="10" fill="#e34c26" stroke="#141321" stroke-width="1"/>
  <text x="36" y="95" font-size="11" fill="#a9fef7">HTML 1.30%</text>
  <rect x="20" y="107" width="10" height="10" fill="#AA6746" stroke="#141321" stroke-width="1"/>
  <text x="36" y="115" font-size="11" fill="#a9fef7">Solidity 0.46%</text>
  <rect x="20" y="127" width="10" height="10" fill="#384d54" stroke="#141321" stroke-width="1"/>
  <text x="36" y="135" font-size="11" fill="#a9fef7">Dockerfile 0.37%</text>
  <rect x="20" y="147" width="10" height="10" fill="#89e051" stroke="#141321" stroke-width="1"/>
  <text x="36" y="155" font-size="11" fill="#a9fef7">Shell 0.13%</text>
  <path d="M250.00,55.00 A55.00,55.00 0 1 1 236.23,56.75 L242.49,80.96 A30.00,30.00 0 1 0 250.00,80.00 Z" fill="#dea584" stroke="#141321" stroke-width="1.5"/>
  <path d="M236.23,56.75 A55.00,55.00 0 0 1 242.20,55.56 L245.75,80.30 A30.00,30.00 0 0 0 242.49,80.96 Z" fill="#f1e05a" stroke="#141321" stroke-width="1.5"/>
  <path d="M242.20,55.56 A55.00,55.00 0 0 1 246.68,55.10 L248.19,80.05 A30.00,30.00 0 0 0 245.75,80.30 Z" fill="#e34c26" stroke="#141321" stroke-width="1.5"/>
  <path d="M246.68,55.10 A55.00,55.00 0 0 1 248.28,55.03 L249.06,80.01 A30.00,30.00 0 0 0 248.19,80.05 Z" fill="#AA6746" stroke="#141321" stroke-width="1.5"/>
  <path d="M248.28,55.03 A55.00,55.00 0 0 1 249.56,55.00 L249.76,80.00 A30.00,30.00 0 0 0 249.06,80.01 Z" fill="#384d54" stroke="#141321" stroke-width="1.5"/>
  <path d="M249.56,55.00 A55.00,55.00 0 0 1 250.00,55.00 L250.00,80.00 A30.00,30.00 0 0 0 249.76,80.00 Z" fill="#89e051" stroke="#141321" stroke-width="1.5"/>
</svg>