<svg xmlns="http://www.w3.org/2000/svg" width="340" height="200" viewBox="0 0 340 200" font-family="'Segoe UI', Ubuntu, Sans-Serif">
  <rect x="0.5" y="0.5" width="339" height="199" rx="6" fill="#141321" stroke="#141321" stroke-opacity="1.00"/>
  <text x="20" y="30" font-size="15" font-weight="600" fill="#fe428e">Most Commit Language (all time)</text>
  <rect x="20" y="47" width="10" height="10" fill="#dea584" stroke="#141321" stroke-width="1"/>
  <text x="36" y="55" font-size="11" fill="#a9fef7">Rust 88.32%</text>
  <rect x="20" y="67" width="10" height="10" fill="#4F5D95" stroke="#141321" stroke-width="1"/>
  <text x="36" y="75" font-size="11" fill="#a9fef7">PHP 4.30%</text>
  <rect x="20" y="87" width="10" height="10" fill="#f1e05a" stroke="#141321" stroke-width="1"/>
  <text x="36" y="95" font-size="11" fill="#a9fef7">JavaScript 2.33%</text>
  <rect x="20" y="107" width="10" height="10" fill="#1a5e9a" stroke="#141321" stroke-width="1"/>
  <text x="36" y="115" font-size="11" fill="#a9fef7">WGSL 1.67%</text>
  <rect x="20" y="127" width="10" height="10" fill="#e34c26" stroke="#141321" stroke-width="1"/>
  <text x="36" y="135" font-size="11" fill="#a9fef7">HTML 0.99%</text>
  <rect x="20" y="147" width="10" height="10" fill="#663399" stroke="#141321" stroke-width="1"/>
  <text x="36" y="155" font-size="11" fill="#a9fef7">CSS 0.62%</text>
  <rect x="20" y="167" width="10" height="10" fill="#ae81ff" stroke="#141321" stroke-width="1"/>
  <text x="36" y="175" font-size="11" fill="#a9fef7">Other 1.76%</text>
  <path d="M250.00,55.00 A55.00,55.00 0 1 1 213.16,69.16 L229.91,87.72 A30.00,30.00 0 1 0 250.00,80.00 Z" fill="#dea584" stroke="#141321" stroke-width="1.5"/>
  <path d="M213.16,69.16 A55.00,55.00 0 0 1 225.40,60.81 L236.58,83.17 A30.00,30.00 0 0 0 229.91,87.72 Z" fill="#4F5D95" stroke="#141321" stroke-width="1.5"/>
  <path d="M225.40,60.81 A55.00,55.00 0 0 1 232.85,57.74 L240.64,81.50 A30.00,30.00 0 0 0 236.58,83.17 Z" fill="#f1e05a" stroke="#141321" stroke-width="1.5"/>
  <path d="M232.85,57.74 A55.00,55.00 0 0 1 238.42,56.23 L243.69,80.67 A30.00,30.00 0 0 0 240.64,81.50 Z" fill="#1a5e9a" stroke="#141321" stroke-width="1.5"/>
  <path d="M238.42,56.23 A55.00,55.00 0 0 1 241.81,55.61 L245.53,80.33 A30.00,30.00 0 0 0 243.69,80.67 Z" fill="#e34c26" stroke="#141321" stroke-width="1.5"/>
  <path d="M241.81,55.61 A55.00,55.00 0 0 1 243.92,55.34 L246.68,80.18 A30.00,30.00 0 0 0 245.53,80.33 Z" fill="#663399" stroke="#141321" stroke-width="1.5"/>
  <path d="M243.92,55.34 A55.00,55.00 0 0 1 250.00,55.00 L250.00,80.00 A30.00,30.00 0 0 0 246.68,80.18 Z" fill="#ae81ff" stroke="#141321" stroke-width="1.5"/>
</svg>