<svg xmlns="http://www.w3.org/2000/svg" width="340" height="200" viewBox="0 0 340 200" font-family="'Segoe UI', Ubuntu, Sans-Serif">
  <rect x="0.5" y="0.5" width="339" height="199" rx="6" fill="#141321" stroke="#141321" stroke-opacity="1.00"/>
  <text x="20" y="30" font-size="15" font-weight="600" fill="#fe428e">Most Commit Language (last year)</text>
  <rect x="20" y="47" width="10" height="10" fill="#dea584" stroke="#141321" stroke-width="1"/>
  <text x="36" y="55" font-size="11" fill="#a9fef7">Rust 89.55%</text>
  <rect x="20" y="67" width="10" height="10" fill="#4F5D95" stroke="#141321" stroke-width="1"/>
  <text x="36" y="75" font-size="11" fill="#a9fef7">PHP 4.88%</text>
  <rect x="20" y="87" width="10" height="10" fill="#f1e05a" stroke="#141321" stroke-width="1"/>
  <text x="36" y="95" font-size="11" fill="#a9fef7">JavaScript 2.63%</text>
  <rect x="20" y="107" width="10" height="10" fill="#1a5e9a" stroke="#141321" stroke-width="1"/>
  <text x="36" y="115" font-size="11" fill="#a9fef7">WGSL 0.97%</text>
  <rect x="20" y="127" width="10" height="10" fill="#663399" stroke="#141321" stroke-width="1"/>
  <text x="36" y="135" font-size="11" fill="#a9fef7">CSS 0.70%</text>
  <rect x="20" y="147" width="10" height="10" fill="#AA6746" stroke="#141321" stroke-width="1"/>
  <text x="36" y="155" font-size="11" fill="#a9fef7">Solidity 0.40%</text>
  <rect x="20" y="167" width="10" height="10" fill="#ae81ff" stroke="#141321" stroke-width="1"/>
  <text x="36" y="175" font-size="11" fill="#a9fef7">Other 0.87%</text>
  <path d="M250.00,55.00 A55.00,55.00 0 1 1 216.44,66.43 L231.69,86.23 A30.00,30.00 0 1 0 250.00,80.00 Z" fill="#dea584" stroke="#141321" stroke-width="1.5"/>
  <path d="M216.44,66.43 A55.00,55.00 0 0 1 231.15,58.33 L239.72,81.82 A30.00,30.00 0 0 0 231.69,86.23 Z" fill="#4F5D95" stroke="#141321" stroke-width="1.5"/>
  <path d="M231.15,58.33 A55.00,55.00 0 0 1 239.90,55.94 L244.49,80.51 A30.00,30.00 0 0 0 239.72,81.82 Z" fill="#f1e05a" stroke="#141321" stroke-width="1.5"/>
  <path d="M239.90,55.94 A55.00,55.00 0 0 1 243.21,55.42 L246.30,80.23 A30.00,30.00 0 0 0 244.49,80.51 Z" fill="#1a5e9a" stroke="#141321" stroke-width="1.5"/>
  <path d="M243.21,55.42 A55.00,55.00 0 0 1 245.62,55.18 L247.61,80.10 A30.00,30.00 0 0 0 246.30,80.23 Z" fill="#663399" stroke="#141321" stroke-width="1.5"/>
  <path d="M245.62,55.18 A55.00,55.00 0 0 1 247.00,55.08 L248.36,80.04 A30.00,30.00 0 0 0 247.61,80.10 Z" fill="#AA6746" stroke="#141321" stroke-width="1.5"/>
  <path d="M247.00,55.08 A55.00,55.00 0 0 1 250.00,55.00 L250.00,80.00 A30.00,30.00 0 0 0 248.36,80.04 Z" fill="#ae81ff" stroke="#141321" stroke-width="1.5"/>
</svg>