<svg xmlns="http://www.w3.org/2000/svg" width="340" height="200" viewBox="0 0 340 200" font-family="'Segoe UI', Ubuntu, Sans-Serif">
  <rect x="0.5" y="0.5" width="339" height="199" rx="6" fill="#141321" stroke="#141321" stroke-opacity="1.00"/>
  <text x="20" y="30" font-size="14" font-weight="600" fill="#fe428e">Commits by Hour (last year, UTC+5:30)</text>
  <line x1="35" y1="45" x2="35" y2="155" stroke="#f8d847"/>
  <line x1="31" y1="155" x2="35" y2="155" stroke="#f8d847"/>
  <text x="29" y="158" font-size="10" fill="#f8d847" text-anchor="end">0</text>
  <line x1="31" y1="133" x2="35" y2="133" stroke="#f8d847"/>
  <text x="29" y="136" font-size="10" fill="#f8d847" text-anchor="end">1</text>
  <line x1="31" y1="111" x2="35" y2="111" stroke="#f8d847"/>
  <text x="29" y="114" font-size="10" fill="#f8d847" text-anchor="end">2</text>
  <line x1="31" y1="89" x2="35" y2="89" stroke="#f8d847"/>
  <text x="29" y="92" font-size="10" fill="#f8d847" text-anchor="end">3</text>
  <line x1="31" y1="67" x2="35" y2="67" stroke="#f8d847"/>
  <text x="29" y="70" font-size="10" fill="#f8d847" text-anchor="end">4</text>
  <line x1="31" y1="45" x2="35" y2="45" stroke="#f8d847"/>
  <text x="29" y="48" font-size="10" fill="#f8d847" text-anchor="end">5</text>
  <line x1="35" y1="155" x2="325" y2="155" stroke="#f8d847"/>
  <line x1="40" y1="155" x2="40" y2="159" stroke="#f8d847"/>
  <text x="40" y="171" font-size="10" fill="#f8d847" text-anchor="middle">0</text>
  <line x1="113" y1="155" x2="113" y2="159" stroke="#f8d847"/>
  <text x="113" y="171" font-size="10" fill="#f8d847" text-anchor="middle">6</text>
  <line x1="186" y1="155" x2="186" y2="159" stroke="#f8d847"/>
  <text x="186" y="171" font-size="10" fill="#f8d847" text-anchor="middle">12</text>
  <line x1="258" y1="155" x2="258" y2="159" stroke="#f8d847"/>
  <text x="258" y="171" font-size="10" fill="#f8d847" text-anchor="middle">18</text>
  <line x1="319" y1="155" x2="319" y2="159" stroke="#f8d847"/>
  <text x="319" y="171" font-size="10" fill="#f8d847" text-anchor="middle">23</text>
  <rect x="35.00" y="67.00" width="11.12" height="88.00" rx="2" fill="#ae81ff"><title>00:00 — 4 commits</title></rect>
  <rect x="47.12" y="67.00" width="11.12" height="88.00" rx="2" fill="#ae81ff"><title>01:00 — 4 commits</title></rect>
  <rect x="59.25" y="155.00" width="11.12" height="0.00" rx="2" fill="#ae81ff"><title>02:00 — 0 commits</title></rect>
  <rect x="71.38" y="111.00" width="11.12" height="44.00" rx="2" fill="#ae81ff"><title>03:00 — 2 commits</title></rect>
  <rect x="83.50" y="155.00" width="11.12" height="0.00" rx="2" fill="#ae81ff"><title>04:00 — 0 commits</title></rect>
  <rect x="95.62" y="133.00" width="11.12" height="22.00" rx="2" fill="#ae81ff"><title>05:00 — 1 commits</title></rect>
  <rect x="107.75" y="155.00" width="11.12" height="0.00" rx="2" fill="#ae81ff"><title>06:00 — 0 commits</title></rect>
  <rect x="119.88" y="155.00" width="11.12" height="0.00" rx="2" fill="#ae81ff"><title>07:00 — 0 commits</title></rect>
  <rect x="132.00" y="133.00" width="11.12" height="22.00" rx="2" fill="#ae81ff"><title>08:00 — 1 commits</title></rect>
  <rect x="144.12" y="155.00" width="11.12" height="0.00" rx="2" fill="#ae81ff"><title>09:00 — 0 commits</title></rect>
  <rect x="156.25" y="155.00" width="11.12" height="0.00" rx="2" fill="#ae81ff"><title>10:00 — 0 commits</title></rect>
  <rect x="168.38" y="155.00" width="11.12" height="0.00" rx="2" fill="#ae81ff"><title>11:00 — 0 commits</title></rect>
  <rect x="180.50" y="155.00" width="11.12" height="0.00" rx="2" fill="#ae81ff"><title>12:00 — 0 commits</title></rect>
  <rect x="192.62" y="155.00" width="11.12" height="0.00" rx="2" fill="#ae81ff"><title>13:00 — 0 commits</title></rect>
  <rect x="204.75" y="133.00" width="11.12" height="22.00" rx="2" fill="#ae81ff"><title>14:00 — 1 commits</title></rect>
  <rect x="216.88" y="111.00" width="11.12" height="44.00" rx="2" fill="#ae81ff"><title>15:00 — 2 commits</title></rect>
  <rect x="229.00" y="155.00" width="11.12" height="0.00" rx="2" fill="#ae81ff"><title>16:00 — 0 commits</title></rect>
  <rect x="241.12" y="155.00" width="11.12" height="0.00" rx="2" fill="#ae81ff"><title>17:00 — 0 commits</title></rect>
  <rect x="253.25" y="155.00" width="11.12" height="0.00" rx="2" fill="#ae81ff"><title>18:00 — 0 commits</title></rect>
  <rect x="265.38" y="155.00" width="11.12" height="0.00" rx="2" fill="#ae81ff"><title>19:00 — 0 commits</title></rect>
  <rect x="277.50" y="155.00" width="11.12" height="0.00" rx="2" fill="#ae81ff"><title>20:00 — 0 commits</title></rect>
  <rect x="289.62" y="155.00" width="11.12" height="0.00" rx="2" fill="#ae81ff"><title>21:00 — 0 commits</title></rect>
  <rect x="301.75" y="111.00" width="11.12" height="44.00" rx="2" fill="#ae81ff"><title>22:00 — 2 commits</title></rect>
  <rect x="313.88" y="45.00" width="11.12" height="110.00" rx="2" fill="#ae81ff"><title>23:00 — 5 commits</title></rect>
  <text x="180" y="189" font-size="11" fill="#f8d847" text-anchor="middle">hour of day</text>
</svg>