<svg xmlns="http://www.w3.org/2000/svg" width="340" height="200" viewBox="0 0 340 200" font-family="'Segoe UI', Ubuntu, Sans-Serif">
  <rect x="0.5" y="0.5" width="339" height="199" rx="6" fill="#141321" stroke="#141321" stroke-opacity="1.00"/>
  <text x="20" y="30" font-size="15" font-weight="600" fill="#fe428e">Commits by Weekday (last year)</text>
  <line x1="35" y1="45" x2="35" y2="155" stroke="#f8d847"/>
  <line x1="31" y1="155" x2="35" y2="155" stroke="#f8d847"/>
  <text x="29" y="158" font-size="10" fill="#f8d847" text-anchor="end">0</text>
  <line x1="31" y1="128" x2="35" y2="128" stroke="#f8d847"/>
  <text x="29" y="131" font-size="10" fill="#f8d847" text-anchor="end">2</text>
  <line x1="31" y1="100" x2="35" y2="100" stroke="#f8d847"/>
  <text x="29" y="103" font-size="10" fill="#f8d847" text-anchor="end">4</text>
  <line x1="31" y1="73" x2="35" y2="73" stroke="#f8d847"/>
  <text x="29" y="76" font-size="10" fill="#f8d847" text-anchor="end">6</text>
  <line x1="31" y1="45" x2="35" y2="45" stroke="#f8d847"/>
  <text x="29" y="48" font-size="10" fill="#f8d847" text-anchor="end">8</text>
  <line x1="35" y1="155" x2="325" y2="155" stroke="#f8d847"/>
  <rect x="35.00" y="72.50" width="36.29" height="82.50" rx="2" fill="#684f9b"><title>Sun — 6 commits</title></rect>
  <text x="53.14" y="169" font-size="10" fill="#f8d847" text-anchor="middle">Sun</text>
  <rect x="77.29" y="127.50" width="36.29" height="27.50" rx="2" fill="#684f9b"><title>Mon — 2 commits</title></rect>
  <text x="95.43" y="169" font-size="10" fill="#f8d847" text-anchor="middle">Mon</text>
  <rect x="119.57" y="127.50" width="36.29" height="27.50" rx="2" fill="#684f9b"><title>Tue — 2 commits</title></rect>
  <text x="137.71" y="169" font-size="10" fill="#f8d847" text-anchor="middle">Tue</text>
  <rect x="161.86" y="45.00" width="36.29" height="110.00" rx="2" fill="#ae81ff"><title>Wed — 8 commits</title></rect>
  <text x="180.00" y="169" font-size="10" fill="#f8d847" text-anchor="middle">Wed</text>
  <rect x="204.14" y="155.00" width="36.29" height="0.00" rx="2" fill="#684f9b"><title>Thu — 0 commits</title></rect>
  <text x="222.29" y="169" font-size="10" fill="#f8d847" text-anchor="middle">Thu</text>
  <rect x="246.43" y="113.75" width="36.29" height="41.25" rx="2" fill="#684f9b"><title>Fri — 3 commits</title></rect>
  <text x="264.57" y="169" font-size="10" fill="#f8d847" text-anchor="middle">Fri</text>
  <rect x="288.71" y="141.25" width="36.29" height="13.75" rx="2" fill="#684f9b"><title>Sat — 1 commits</title></rect>
  <text x="306.86" y="169" font-size="10" fill="#f8d847" text-anchor="middle">Sat</text>
</svg>