<svg xmlns="http://www.w3.org/2000/svg" width="340" height="200" viewBox="0 0 340 200" font-family="'Segoe UI', Ubuntu, Sans-Serif">
  <rect x="0.5" y="0.5" width="339" height="199" rx="6" fill="#141321" stroke="#141321" stroke-opacity="1.00"/>
  <text x="20" y="30" font-size="15" font-weight="600" fill="#fe428e">Repos Per Language</text>
  <rect x="20" y="47" width="10" height="10" fill="#dea584" stroke="#141321" stroke-width="1"/>
  <text x="36" y="55" font-size="11" fill="#a9fef7">Rust 68.00%</text>
  <rect x="20" y="67" width="10" height="10" fill="#3572A5" stroke="#141321" stroke-width="1"/>
  <text x="36" y="75" font-size="11" fill="#a9fef7">Python 16.00%</text>
  <rect x="20" y="87" width="10" height="10" fill="#3178c6" stroke="#141321" stroke-width="1"/>
  <text x="36" y="95" font-size="11" fill="#a9fef7">TypeScript 8.00%</text>
  <rect x="20" y="107" width="10" height="10" fill="#427819" stroke="#141321" stroke-width="1"/>
  <text x="36" y="115" font-size="11" fill="#a9fef7">Makefile 4.00%</text>
  <rect x="20" y="127" width="10" height="10" fill="#4F5D95" stroke="#141321" stroke-width="1"/>
  <text x="36" y="135" font-size="11" fill="#a9fef7">PHP 4.00%</text>
  <path d="M250.00,55.00 A55.00,55.00 0 1 1 200.23,133.42 L222.86,122.77 A30.00,30.00 0 1 0 250.00,80.00 Z" fill="#dea584" stroke="#141321" stroke-width="1.5"/>
  <path d="M200.23,133.42 A55.00,55.00 0 0 1 203.56,80.53 L224.67,93.93 A30.00,30.00 0 0 0 222.86,122.77 Z" fill="#3572A5" stroke="#141321" stroke-width="1.5"/>
  <path d="M203.56,80.53 A55.00,55.00 0 0 1 223.50,61.80 L235.55,83.71 A30.00,30.00 0 0 0 224.67,93.93 Z" fill="#3178c6" stroke="#141321" stroke-width="1.5"/>
  <path d="M223.50,61.80 A55.00,55.00 0 0 1 236.32,56.73 L242.54,80.94 A30.00,30.00 0 0 0 235.55,83.71 Z" fill="#427819" stroke="#141321" stroke-width="1.5"/>
  <path d="M236.32,56.73 A55.00,55.00 0 0 1 250.00,55.00 L250.00,80.00 A30.00,30.00 0 0 0 242.54,80.94 Z" fill="#4F5D95" stroke="#141321" stroke-width="1.5"/>
</svg>