<svg xmlns="http://www.w3.org/2000/svg" width="340" height="200" viewBox="0 0 340 200" font-family="'Segoe UI', Ubuntu, Sans-Serif">
  <rect x="0.5" y="0.5" width="339" height="199" rx="6" fill="#141321" stroke="#141321" stroke-opacity="1.00"/>
  <text x="20" y="30" font-size="15" font-weight="600" fill="#fe428e">Repos Per Language</text>
  <rect x="20" y="47" width="10" height="10" fill="#dea584" stroke="#141321" stroke-width="1"/>
  <text x="36" y="55" font-size="11" fill="#a9fef7">Rust 72.73%</text>
  <rect x="20" y="67" width="10" height="10" fill="#3572A5" stroke="#141321" stroke-width="1"/>
  <text x="36" y="75" font-size="11" fill="#a9fef7">Python 18.18%</text>
  <rect x="20" y="87" width="10" height="10" fill="#4F5D95" stroke="#141321" stroke-width="1"/>
  <text x="36" y="95" font-size="11" fill="#a9fef7">PHP 4.55%</text>
  <rect x="20" y="107" width="10" height="10" fill="#3178c6" stroke="#141321" stroke-width="1"/>
  <text x="36" y="115" font-size="11" fill="#a9fef7">TypeScript 4.55%</text>
  <path d="M250.00,55.00 A55.00,55.00 0 1 1 195.56,117.83 L220.31,114.27 A30.00,30.00 0 1 0 250.00,80.00 Z" fill="#dea584" stroke="#141321" stroke-width="1.5"/>
  <path d="M195.56,117.83 A55.00,55.00 0 0 1 220.26,63.73 L233.78,84.76 A30.00,30.00 0 0 0 220.31,114.27 Z" fill="#3572A5" stroke="#141321" stroke-width="1.5"/>
  <path d="M220.26,63.73 A55.00,55.00 0 0 1 234.50,57.23 L241.55,81.22 A30.00,30.00 0 0 0 233.78,84.76 Z" fill="#4F5D95" stroke="#141321" stroke-width="1.5"/>
  <path d="M234.50,57.23 A55.00,55.00 0 0 1 250.00,55.00 L250.00,80.00 A30.00,30.00 0 0 0 241.55,81.22 Z" fill="#3178c6" stroke="#141321" stroke-width="1.5"/>
</svg>