<svg xmlns="http://www.w3.org/2000/svg" width="340" height="200" viewBox="0 0 340 200" font-family="'Segoe UI', Ubuntu, Sans-Serif">
  <rect x="0.5" y="0.5" width="339" height="199" rx="6" fill="#141321" stroke="#141321" stroke-opacity="1.00"/>
  <text x="20" y="30" font-size="15" font-weight="600" fill="#fe428e">Repos Per Language</text>
  <rect x="20" y="47" width="10" height="10" fill="#dea584" stroke="#141321" stroke-width="1"/>
  <text x="36" y="55" font-size="11" fill="#a9fef7">Rust 64.29%</text>
  <rect x="20" y="67" width="10" height="10" fill="#3572A5" stroke="#141321" stroke-width="1"/>
  <text x="36" y="75" font-size="11" fill="#a9fef7">Python 28.57%</text>
  <rect x="20" y="87" width="10" height="10" fill="#3178c6" stroke="#141321" stroke-width="1"/>
  <text x="36" y="95" font-size="11" fill="#a9fef7">TypeScript 7.14%</text>
  <path d="M250.00,55.00 A55.00,55.00 0 1 1 207.00,144.29 L226.55,128.70 A30.00,30.00 0 1 0 250.00,80.00 Z" fill="#dea584" stroke="#141321" stroke-width="1.5"/>
  <path d="M207.00,144.29 A55.00,55.00 0 0 1 226.14,60.45 L236.98,82.97 A30.00,30.00 0 0 0 226.55,128.70 Z" fill="#3572A5" stroke="#141321" stroke-width="1.5"/>
  <path d="M226.14,60.45 A55.00,55.00 0 0 1 250.00,55.00 L250.00,80.00 A30.00,30.00 0 0 0 236.98,82.97 Z" fill="#3178c6" stroke="#141321" stroke-width="1.5"/>
</svg>