<svg xmlns="http://www.w3.org/2000/svg" width="340" height="200" viewBox="0 0 340 200" font-family="'Segoe UI', Ubuntu, Sans-Serif">
  <rect x="0.5" y="0.5" width="339" height="199" rx="6" fill="#141321" stroke="#141321" stroke-opacity="1.00"/>
  <text x="20" y="30" font-size="15" font-weight="600" fill="#fe428e">Repos Per Language</text>
  <rect x="20" y="47" width="10" height="10" fill="#dea584" stroke="#141321" stroke-width="1"/>
  <text x="36" y="55" font-size="11" fill="#a9fef7">Rust 69.23%</text>
  <rect x="20" y="67" width="10" height="10" fill="#3572A5" stroke="#141321" stroke-width="1"/>
  <text x="36" y="75" font-size="11" fill="#a9fef7">Python 15.38%</text>
  <rect x="20" y="87" width="10" height="10" fill="#3178c6" stroke="#141321" stroke-width="1"/>
  <text x="36" y="95" font-size="11" fill="#a9fef7">TypeScript 7.69%</text>
  <rect x="20" y="107" width="10" height="10" fill="#427819" stroke="#141321" stroke-width="1"/>
  <text x="36" y="115" font-size="11" fill="#a9fef7">Makefile 3.85%</text>
  <rect x="20" y="127" width="10" height="10" fill="#4F5D95" stroke="#141321" stroke-width="1"/>
  <text x="36" y="135" font-size="11" fill="#a9fef7">PHP 3.85%</text>
  <path d="M250.00,55.00 A55.00,55.00 0 1 1 198.57,129.50 L221.95,120.64 A30.00,30.00 0 1 0 250.00,80.00 Z" fill="#dea584" stroke="#141321" stroke-width="1.5"/>
  <path d="M198.57,129.50 A55.00,55.00 0 0 1 204.74,78.76 L225.31,92.96 A30.00,30.00 0 0 0 221.95,120.64 Z" fill="#3572A5" stroke="#141321" stroke-width="1.5"/>
  <path d="M204.74,78.76 A55.00,55.00 0 0 1 224.44,61.30 L236.06,83.44 A30.00,30.00 0 0 0 225.31,92.96 Z" fill="#3178c6" stroke="#141321" stroke-width="1.5"/>
  <path d="M224.44,61.30 A55.00,55.00 0 0 1 236.84,56.60 L242.82,80.87 A30.00,30.00 0 0 0 236.06,83.44 Z" fill="#427819" stroke="#141321" stroke-width="1.5"/>
  <path d="M236.84,56.60 A55.00,55.00 0 0 1 250.00,55.00 L250.00,80.00 A30.00,30.00 0 0 0 242.82,80.87 Z" fill="#4F5D95" stroke="#141321" stroke-width="1.5"/>
</svg>