<svg xmlns="http://www.w3.org/2000/svg" width="340" height="200" viewBox="0 0 340 200" font-family="'Segoe UI', Ubuntu, Sans-Serif">
  <rect x="0.5" y="0.5" width="339" height="199" rx="6" fill="#141321" stroke="#141321" stroke-opacity="1.00"/>
  <text x="20" y="30" font-size="15" font-weight="600" fill="#fe428e">Repos Per Language</text>
  <rect x="20" y="47" width="10" height="10" fill="#dea584" stroke="#141321" stroke-width="1"/>
  <text x="36" y="55" font-size="11" fill="#a9fef7">Rust 69.57%</text>
  <rect x="20" y="67" width="10" height="10" fill="#3572A5" stroke="#141321" stroke-width="1"/>
  <text x="36" y="75" font-size="11" fill="#a9fef7">Python 17.39%</text>
  <rect x="20" y="87" width="10" height="10" fill="#427819" stroke="#141321" stroke-width="1"/>
  <text x="36" y="95" font-size="11" fill="#a9fef7">Makefile 4.35%</text>
  <rect x="20" y="107" width="10" height="10" fill="#4F5D95" stroke="#141321" stroke-width="1"/>
  <text x="36" y="115" font-size="11" fill="#a9fef7">PHP 4.35%</text>
  <rect x="20" y="127" width="10" height="10" fill="#3178c6" stroke="#141321" stroke-width="1"/>
  <text x="36" y="135" font-size="11" fill="#a9fef7">TypeScript 4.35%</text>
  <path d="M250.00,55.00 A55.00,55.00 0 1 1 198.18,128.42 L221.73,120.05 A30.00,30.00 0 1 0 250.00,80.00 Z" fill="#dea584" stroke="#141321" stroke-width="1.5"/>
  <path d="M198.18,128.42 A55.00,55.00 0 0 1 209.80,72.46 L228.07,89.52 A30.00,30.00 0 0 0 221.73,120.05 Z" fill="#3572A5" stroke="#141321" stroke-width="1.5"/>
  <path d="M209.80,72.46 A55.00,55.00 0 0 1 221.42,63.01 L234.41,84.37 A30.00,30.00 0 0 0 228.07,89.52 Z" fill="#427819" stroke="#141321" stroke-width="1.5"/>
  <path d="M221.42,63.01 A55.00,55.00 0 0 1 235.16,57.04 L241.91,81.11 A30.00,30.00 0 0 0 234.41,84.37 Z" fill="#4F5D95" stroke="#141321" stroke-width="1.5"/>
  <path d="M235.16,57.04 A55.00,55.00 0 0 1 250.00,55.00 L250.00,80.00 A30.00,30.00 0 0 0 241.91,81.11 Z" fill="#3178c6" stroke="#141321" stroke-width="1.5"/>
</svg>