<svg xmlns="http://www.w3.org/2000/svg" width="340" height="200" viewBox="0 0 340 200" font-family="'Segoe UI', Ubuntu, Sans-Serif">
  <rect x="0.5" y="0.5" width="339" height="199" rx="6" fill="#141321" stroke="#141321" stroke-opacity="1.00"/>
  <text x="20" y="30" font-size="15" font-weight="600" fill="#fe428e">Repos Per Language</text>
  <rect x="20" y="47" width="10" height="10" fill="#dea584" stroke="#141321" stroke-width="1"/>
  <text x="36" y="55" font-size="11" fill="#a9fef7">Rust 70.00%</text>
  <rect x="20" y="67" width="10" height="10" fill="#3572A5" stroke="#141321" stroke-width="1"/>
  <text x="36" y="75" font-size="11" fill="#a9fef7">Python 20.00%</text>
  <rect x="20" y="87" width="10" height="10" fill="#4F5D95" stroke="#141321" stroke-width="1"/>
  <text x="36" y="95" font-size="11" fill="#a9fef7">PHP 5.00%</text>
  <rect x="20" y="107" width="10" height="10" fill="#3178c6" stroke="#141321" stroke-width="1"/>
  <text x="36" y="115" font-size="11" fill="#a9fef7">TypeScript 5.00%</text>
  <path d="M250.00,55.00 A55.00,55.00 0 1 1 197.69,127.00 L221.47,119.27 A30.00,30.00 0 1 0 250.00,80.00 Z" fill="#dea584" stroke="#141321" stroke-width="1.5"/>
  <path d="M197.69,127.00 A55.00,55.00 0 0 1 217.67,65.50 L232.37,85.73 A30.00,30.00 0 0 0 221.47,119.27 Z" fill="#3572A5" stroke="#141321" stroke-width="1.5"/>
  <path d="M217.67,65.50 A55.00,55.00 0 0 1 233.00,57.69 L240.73,81.47 A30.00,30.00 0 0 0 232.37,85.73 Z" fill="#4F5D95" stroke="#141321" stroke-width="1.5"/>
  <path d="M233.00,57.69 A55.00,55.00 0 0 1 250.00,55.00 L250.00,80.00 A30.00,30.00 0 0 0 240.73,81.47 Z" fill="#3178c6" stroke="#141321" stroke-width="1.5"/>
</svg>