<svg xmlns="http://www.w3.org/2000/svg" width="340" height="200" viewBox="0 0 340 200" font-family="'Segoe UI', Ubuntu, Sans-Serif">
  <rect x="0.5" y="0.5" width="339" height="199" rx="6" fill="#141321" stroke="#141321" stroke-opacity="1.00"/>
  <text x="20" y="30" font-size="15" font-weight="600" fill="#fe428e">Top Starred Repos</text>
  <circle cx="24" cy="56" r="4" fill="#dea584"/>
  <text x="34" y="60" font-size="12" fill="#a9fef7">ferrous-browser</text>
  <rect x="150" y="52" width="120" height="10" rx="3" fill="#ae81ff" fill-opacity="0.15"/>
  <rect x="150" y="52" width="120.00" height="10" rx="3" fill="#ae81ff"/>
  <text x="334" y="60" font-size="12" font-weight="600" fill="#ae81ff" text-anchor="end">25 ★</text>
  <circle cx="24" cy="78" r="4" fill="#dea584"/>
  <text x="34" y="82" font-size="12" fill="#a9fef7">aether</text>
  <rect x="150" y="74" width="120" height="10" rx="3" fill="#ae81ff" fill-opacity="0.15"/>
  <rect x="150" y="74" width="43.20" height="10" rx="3" fill="#ae81ff"/>
  <text x="334" y="82" font-size="12" font-weight="600" fill="#ae81ff" text-anchor="end">9 ★</text>
  <circle cx="24" cy="100" r="4" fill="#dea584"/>
  <text x="34" y="104" font-size="12" fill="#a9fef7">ironflow</text>
  <rect x="150" y="96" width="120" height="10" rx="3" fill="#ae81ff" fill-opacity="0.15"/>
  <rect x="150" y="96" width="28.80" height="10" rx="3" fill="#ae81ff"/>
  <text x="334" y="104" font-size="12" font-weight="600" fill="#ae81ff" text-anchor="end">6 ★</text>
  <circle cx="24" cy="122" r="4" fill="#dea584"/>
  <text x="34" y="126" font-size="12" fill="#a9fef7">mev-arbitrage-bot</text>
  <rect x="150" y="118" width="120" height="10" rx="3" fill="#ae81ff" fill-opacity="0.15"/>
  <rect x="150" y="118" width="19.20" height="10" rx="3" fill="#ae81ff"/>
  <text x="334" y="126" font-size="12" font-weight="600" fill="#ae81ff" text-anchor="end">4 ★</text>
  <circle cx="24" cy="144" r="4" fill="#dea584"/>
  <text x="34" y="148" font-size="12" fill="#a9fef7">arbitrage-bot</text>
  <rect x="150" y="140" width="120" height="10" rx="3" fill="#ae81ff" fill-opacity="0.15"/>
  <rect x="150" y="140" width="14.40" height="10" rx="3" fill="#ae81ff"/>
  <text x="334" y="148" font-size="12" font-weight="600" fill="#ae81ff" text-anchor="end">3 ★</text>
</svg>